<svg xmlns="http://www.w3.org/2000/svg" width="160" height="64.821" viewBox="0 0 160 64.821">
  <g id="Group_6" data-name="Group 6" transform="translate(-50.369 -147.507)">
    <g id="Group_4" data-name="Group 4" transform="translate(50.369 153.428)">
      <path id="Path_23" data-name="Path 23" d="M50.369,202.326l3.343-27.392h6.763l4.9,13.829a19,19,0,0,1,.608,2.622,19.836,19.836,0,0,1,.228,3.153,20.128,20.128,0,0,1,.247-3.23,16.623,16.623,0,0,1,.589-2.545l4.9-13.829h6.762l3.3,27.392h-6.8l-1.254-12.461a16.249,16.249,0,0,1-.19-2.773l.114-3.116a22.937,22.937,0,0,1-1.14,5.7l-4.483,12.651H64.122l-4.483-12.651a24.475,24.475,0,0,1-.8-3.267l-.532-2.432.19,1.254a35.1,35.1,0,0,1,.19,3.647l-.038.988L57.17,202.326Z" transform="translate(-50.369 -174.934)"/>
      <path id="Path_24" data-name="Path 24" d="M257.378,278.2V250.811h9.536a22.132,22.132,0,0,1,3.571.228,7.472,7.472,0,0,1,4.863,2.849,9.619,9.619,0,0,1,1.71,5.927q0,4.255-2.318,6.5t-6.8,2.242h-3.571v9.65Zm6.991-21.769v6.5h1.937a3.925,3.925,0,0,0,2.7-.874,3.124,3.124,0,0,0,.988-2.47q0-3.153-3.609-3.153Z" transform="translate(-212.689 -234.431)"/>
      <g id="Group_1" data-name="Group 1" transform="translate(32.16 0)">
        <path id="Path_25" data-name="Path 25" d="M207.036,193.411v-1.776h.559v8.058h-.559v-1.957q-.066.148-.173.37a2.01,2.01,0,0,1-.256.4,3.627,3.627,0,0,1-3.088,1.431,4.048,4.048,0,0,1-3.006-1.184,4.16,4.16,0,0,1-1.172-3.058,4.215,4.215,0,0,1,1.213-3.067,4.046,4.046,0,0,1,3.014-1.242,4.167,4.167,0,0,1,1.66.329,3.6,3.6,0,0,1,1.312.954,2.914,2.914,0,0,1,.24.337C206.873,193.156,206.959,193.29,207.036,193.411Zm-3.5-1.5A3.351,3.351,0,0,0,201.017,193a3.673,3.673,0,0,0-1.036,2.631,3.782,3.782,0,0,0,1.012,2.722,3.42,3.42,0,0,0,2.589,1.061,3.211,3.211,0,0,0,2.492-1.061,3.919,3.919,0,0,0,.962-2.738,3.743,3.743,0,0,0-.97-2.664A3.31,3.31,0,0,0,203.533,191.914Z" transform="translate(-199.34 -187.836)"/>
        <path id="Path_26" data-name="Path 26" d="M253.184,192.243l-.312.493-.493-.319a3.673,3.673,0,0,0-.979-.369,4.675,4.675,0,0,0-1.077-.134,3.72,3.72,0,0,0-2.721,1.079,3.726,3.726,0,0,0,2.639,6.419,4.21,4.21,0,0,0,1.513-.3,4.437,4.437,0,0,0,1.118-.691l.279.543q-.345.231-.625.395a3.558,3.558,0,0,1-.542.263,5.244,5.244,0,0,1-1.743.312,4.336,4.336,0,0,1-3.132-1.175,4.017,4.017,0,0,1-1.225-3.034,4.15,4.15,0,0,1,1.274-3.1,4.379,4.379,0,0,1,3.182-1.242,5.082,5.082,0,0,1,1.759.313A4.508,4.508,0,0,1,253.184,192.243Z" transform="translate(-235.835 -187.836)"/>
        <path id="Path_27" data-name="Path 27" d="M286.786,186.79V174.934h.592v5.476a2.809,2.809,0,0,1,2.754-1.924,3.158,3.158,0,0,1,1.344.279,2.351,2.351,0,0,1,.965.806,2.135,2.135,0,0,1,.4.855,10.3,10.3,0,0,1,.083,1.628v4.736h-.592v-5.257a2.718,2.718,0,0,0-.585-1.854,2.07,2.07,0,0,0-1.642-.667,2.475,2.475,0,0,0-1.947.89,3.266,3.266,0,0,0-.775,2.224v4.664Z" transform="translate(-267.908 -174.934)"/>
        <path id="Path_28" data-name="Path 28" d="M324.264,180.952a.619.619,0,0,1,.164-.428.534.534,0,0,1,.411-.18.544.544,0,0,1,.411.172.606.606,0,0,1,.165.436.593.593,0,0,1-.165.411.532.532,0,0,1-.411.181.554.554,0,0,1-.4-.173A.572.572,0,0,1,324.264,180.952Zm.279,10.08v-8.058h.592v8.058Z" transform="translate(-297.295 -179.175)"/>
        <path id="Path_29" data-name="Path 29" d="M338.66,199.692v-8.058h.592v1.743a2.587,2.587,0,0,1,1.039-1.43,3.259,3.259,0,0,1,3.068-.312,2.377,2.377,0,0,1,.94.74,2.07,2.07,0,0,1,.413.83,7.426,7.426,0,0,1,.1,1.455v5.032h-.592v-5.142a5.863,5.863,0,0,0-.049-.889,1.87,1.87,0,0,0-.685-1.269,2.207,2.207,0,0,0-1.443-.478,2.493,2.493,0,0,0-2.029.923,3.742,3.742,0,0,0-.759,2.455v4.4Z" transform="translate(-308.584 -187.836)"/>
        <path id="Path_30" data-name="Path 30" d="M383.279,195.795h-7.285a3.7,3.7,0,0,0,.956,2.66,3.274,3.274,0,0,0,2.488,1.007,3.352,3.352,0,0,0,1.945-.555,3.56,3.56,0,0,0,1.253-1.649l.544.2c-.044.088-.089.182-.132.281a1.992,1.992,0,0,1-.164.3,3.613,3.613,0,0,1-3.42,1.9,3.987,3.987,0,0,1-2.977-1.136,4.159,4.159,0,0,1-1.118-3.048,4.407,4.407,0,0,1,1.152-3.139,3.857,3.857,0,0,1,2.944-1.227,3.694,3.694,0,0,1,2.746,1.1,3.8,3.8,0,0,1,1.085,2.779Zm-3.831-3.93a3.2,3.2,0,0,0-2.343.9,4.086,4.086,0,0,0-1.11,2.507h6.71a3.4,3.4,0,0,0-.9-2.467A3.122,3.122,0,0,0,379.447,191.865Z" transform="translate(-337.368 -187.836)"/>
        <path id="Path_31" data-name="Path 31" d="M419.933,199.872v-8.058h.591v1.76a2.884,2.884,0,0,1,.912-1.439,2.235,2.235,0,0,1,1.456-.517,2.965,2.965,0,0,1,.823.148l-.264.576a1.666,1.666,0,0,0-.608-.115,2.017,2.017,0,0,0-1.644.872,3.415,3.415,0,0,0-.674,2.154v4.621Z" transform="translate(-372.311 -188.015)"/>
        <path id="Path_32" data-name="Path 32" d="M433.185,203.675l.132-.526a4.811,4.811,0,0,0,1.135.164,1.689,1.689,0,0,0,1.512-1.036q.214-.428.378-.806.263-.624.477-1.151l-3.6-7.795h.742l2.842,6.349c.033.088.089.247.165.477s.127.394.149.493l.165-.591.231-.476,2.665-6.248.707,0-3.935,8.913-.345.805a3.214,3.214,0,0,1-.888,1.249,2.018,2.018,0,0,1-1.266.378A4.39,4.39,0,0,1,433.185,203.675Z" transform="translate(-382.702 -188.727)"/>
      </g>
      <g id="Group_2" data-name="Group 2" transform="translate(67.026 16.38)">
        <path id="Path_33" data-name="Path 33" d="M360.847,262.668V250.811h.592v11.857Z" transform="translate(-360.847 -250.811)"/>
        <path id="Path_34" data-name="Path 34" d="M379.59,269.289v-1.776h.559v8.058h-.559v-1.957q-.066.149-.174.37a2.042,2.042,0,0,1-.256.4,3.628,3.628,0,0,1-3.089,1.43,4.048,4.048,0,0,1-3.005-1.183,4.161,4.161,0,0,1-1.173-3.059,4.215,4.215,0,0,1,1.213-3.067,4.045,4.045,0,0,1,3.014-1.242,4.173,4.173,0,0,1,1.66.329,3.6,3.6,0,0,1,1.313.954,2.93,2.93,0,0,1,.239.337Zm-3.5-1.5a3.35,3.35,0,0,0-2.516,1.085,3.672,3.672,0,0,0-1.036,2.631,3.783,3.783,0,0,0,1.011,2.722,3.422,3.422,0,0,0,2.59,1.061,3.207,3.207,0,0,0,2.491-1.061,3.917,3.917,0,0,0,.962-2.738,3.741,3.741,0,0,0-.97-2.664A3.308,3.308,0,0,0,376.087,267.792Z" transform="translate(-369.509 -263.714)"/>
        <path id="Path_35" data-name="Path 35" d="M420.568,275.57v-8.058h.592v1.743a2.585,2.585,0,0,1,1.039-1.431,3.259,3.259,0,0,1,3.067-.312,2.376,2.376,0,0,1,.941.74,2.065,2.065,0,0,1,.412.83,7.379,7.379,0,0,1,.1,1.456v5.032h-.592v-5.141a5.926,5.926,0,0,0-.049-.89,1.874,1.874,0,0,0-.685-1.269,2.208,2.208,0,0,0-1.444-.478,2.494,2.494,0,0,0-2.029.923,3.742,3.742,0,0,0-.759,2.455v4.4Z" transform="translate(-407.675 -263.714)"/>
        <path id="Path_36" data-name="Path 36" d="M455.076,260.691v-.527h1V257.9h.592v2.269h2.253v.527h-2.253v5.694a2.067,2.067,0,0,0,.032.371,1.281,1.281,0,0,0,1.447,1.154,1.762,1.762,0,0,0,.378-.033c.165-.054.29-.1.378-.132l.132.494A3.942,3.942,0,0,1,458,268.4a2.037,2.037,0,0,1-.823-.165,1.708,1.708,0,0,1-.644-.486,1.772,1.772,0,0,1-.362-.7,5.383,5.383,0,0,1-.1-1.2v-5.158Z" transform="translate(-434.734 -256.366)"/>
      </g>
      <g id="Group_3" data-name="Group 3" transform="translate(82.634 31.609)">
        <path id="Path_37" data-name="Path 37" d="M439.142,333.565v4.9a7.188,7.188,0,0,1-.082,1.167,2.509,2.509,0,0,1-.972,1.628,3.081,3.081,0,0,1-1.944.624,3.387,3.387,0,0,1-1.261-.245,2.825,2.825,0,0,1-1.022-.675,2.339,2.339,0,0,1-.56-.97,5.78,5.78,0,0,1-.156-1.529v-4.9h.593v5.015a5.91,5.91,0,0,0,.066.986,2.094,2.094,0,0,0,.794,1.316,2.494,2.494,0,0,0,1.554.477,2.276,2.276,0,0,0,1.852-.773,3.056,3.056,0,0,0,.546-2.006v-5.015Z" transform="translate(-433.144 -330.929)"/>
        <path id="Path_38" data-name="Path 38" d="M476.56,333.277l-.313.493-.494-.319a3.674,3.674,0,0,0-.98-.37,4.711,4.711,0,0,0-1.079-.135,3.726,3.726,0,0,0-2.727,1.082,3.733,3.733,0,0,0,2.644,6.432,4.231,4.231,0,0,0,1.516-.3,4.432,4.432,0,0,0,1.121-.692l.28.543q-.346.231-.626.4a3.489,3.489,0,0,1-.544.264,5.242,5.242,0,0,1-1.746.312,4.344,4.344,0,0,1-3.139-1.177,4.025,4.025,0,0,1-1.228-3.04,4.159,4.159,0,0,1,1.277-3.106,4.39,4.39,0,0,1,3.189-1.244,5.094,5.094,0,0,1,1.763.314A4.505,4.505,0,0,1,476.56,333.277Z" transform="translate(-461.451 -330.031)"/>
        <path id="Path_39" data-name="Path 39" d="M505.879,325.836v-.527h1.005v-2.273h.594v2.273h2.257v.527h-2.257v5.706a2.068,2.068,0,0,0,.033.372,1.284,1.284,0,0,0,1.45,1.156,1.722,1.722,0,0,0,.378-.033c.166-.054.292-.1.379-.131l.132.493a3.932,3.932,0,0,1-1.038.165,2.035,2.035,0,0,1-.824-.165,1.7,1.7,0,0,1-.646-.487,1.782,1.782,0,0,1-.362-.7,5.416,5.416,0,0,1-.1-1.205v-5.169Z" transform="translate(-490.177 -322.673)"/>
        <path id="Path_40" data-name="Path 40" d="M526.564,321.965a.618.618,0,0,1,.165-.429.534.534,0,0,1,.412-.181.548.548,0,0,1,.412.172.612.612,0,0,1,.165.437.6.6,0,0,1-.165.412.534.534,0,0,1-.412.181.553.553,0,0,1-.4-.173A.571.571,0,0,1,526.564,321.965Zm.28,10.1v-8.074h.593v8.074Z" transform="translate(-506.396 -321.355)"/>
        <path id="Path_41" data-name="Path 41" d="M538.851,336.636a4.141,4.141,0,0,1,1.228-3.084,4.656,4.656,0,0,1,6.269.009,4.422,4.422,0,0,1,.016,6.15,4.659,4.659,0,0,1-6.277,0A4.135,4.135,0,0,1,538.851,336.636Zm4.367-3.765a3.6,3.6,0,0,0-2.67,1.066,3.981,3.981,0,0,0,0,5.4,3.874,3.874,0,0,0,5.339,0,3.958,3.958,0,0,0-.009-5.39A3.589,3.589,0,0,0,543.218,332.872Z" transform="translate(-516.031 -329.972)"/>
        <path id="Path_42" data-name="Path 42" d="M587.547,340.74v-8.074h.593v1.747a2.589,2.589,0,0,1,1.041-1.434,3.261,3.261,0,0,1,3.074-.313,2.381,2.381,0,0,1,.942.742,2.07,2.07,0,0,1,.413.832,7.458,7.458,0,0,1,.1,1.458v5.042h-.593v-5.152a5.845,5.845,0,0,0-.05-.892,1.876,1.876,0,0,0-.686-1.272,2.213,2.213,0,0,0-1.446-.479,2.5,2.5,0,0,0-2.033.925,3.75,3.75,0,0,0-.76,2.46v4.408Z" transform="translate(-554.214 -330.031)"/>
        <path id="Path_43" data-name="Path 43" d="M622.12,339.062l.513-.233a2.406,2.406,0,0,0,3.8,1.088,1.753,1.753,0,0,0,.612-1.367,1.525,1.525,0,0,0-.413-1.1,4.083,4.083,0,0,0-1.473-.824l-.894-.313a1.945,1.945,0,0,1-.911-3.312,2.142,2.142,0,0,1,1.532-.577,2.326,2.326,0,0,1,2.126,1.171l-.462.329a1.876,1.876,0,0,0-1.664-.972,1.609,1.609,0,0,0-1.137.412,1.393,1.393,0,0,0-.444,1.071q0,.939,1.219,1.367l.874.313a4.505,4.505,0,0,1,1.73.988,1.964,1.964,0,0,1,.511,1.4,2.3,2.3,0,0,1-.783,1.781,2.844,2.844,0,0,1-1.985.707A2.682,2.682,0,0,1,622.12,339.062Z" transform="translate(-581.324 -330.031)"/>
      </g>
      <path id="Path_44" data-name="Path 44" d="M331.486,348.646l9.614-27.291h7.23l9.614,27.291h-7.192l-1.589-5.072H340.23l-1.589,5.072Zm12.454-17.034-2.2,6.89h5.905l-2.158-6.89-.379-1.476q-.19-.87-.3-1.836a19.585,19.585,0,0,1-.115-2.252q0,1.439-.075,2.27a13.658,13.658,0,0,1-.3,1.817Z" transform="translate(-270.798 -289.746)"/>
      <path id="Path_45" data-name="Path 45" d="M212.265,255.671a7.667,7.667,0,0,1-1.042-1.525,2.863,2.863,0,0,1-.322-1.234,1.957,1.957,0,0,1,.66-1.488,2.278,2.278,0,0,1,1.61-.613,2.163,2.163,0,0,1,1.549.6,1.952,1.952,0,0,1,.628,1.472,1.918,1.918,0,0,1-.23.867,3.7,3.7,0,0,1-.644.881,11.754,11.754,0,0,1-1.38,1.119l2.988,3.583,1.581-1.928.4.384-1.61,1.963,1.795,2.177-.4.29-1.739-2.062a10.351,10.351,0,0,1-1.882,1.724,2.941,2.941,0,0,1-3.716-.5,3.161,3.161,0,0,1-.9-2.262,2.591,2.591,0,0,1,.23-1.127,3.859,3.859,0,0,1,.813-1.05A14.584,14.584,0,0,1,212.265,255.671Zm3.484,4.076-3.1-3.666a8.81,8.81,0,0,0-1.92,1.611,2.319,2.319,0,0,0-.568,1.473,2.6,2.6,0,0,0,.743,1.864,2.389,2.389,0,0,0,1.788.775,2.287,2.287,0,0,0,1.127-.284,5.77,5.77,0,0,0,1.25-1.051Zm-3.407-4.888.383.49q2.039-1.288,2.039-2.515a1.438,1.438,0,0,0-.468-1.1,1.651,1.651,0,0,0-1.173-.437,1.606,1.606,0,0,0-1.158.468,1.548,1.548,0,0,0-.483,1.158A3.4,3.4,0,0,0,212.342,254.859Z" transform="translate(-175.235 -234.431)"/>
    </g>
    <g id="Group_5" data-name="Group 5" transform="translate(143.284 147.507)">
      <path id="Path_46" data-name="Path 46" d="M589.267,242.277c-3.1-1.339-7.586-4.631-9.221-7.392s-3.59-3.639-5.036-3.875a17.272,17.272,0,0,1-3.322-1.053l0,0a2.179,2.179,0,0,0-2.236.913,2.051,2.051,0,0,0-.309,2.394l.005,0a17.191,17.191,0,0,1,1.867,2.938c.6,1.338,1.949,3,5.036,3.875s7.419,4.36,9.509,7.018a45.9,45.9,0,0,0,7.017,7.325,18.262,18.262,0,0,0,8.675,3.542l1.272-1.652,1.271-1.653a18.267,18.267,0,0,0-5.647-7.477A45.935,45.935,0,0,0,589.267,242.277Z" transform="translate(-549.851 -212.094)" fill="#ffe900"/>
      <path id="Path_47" data-name="Path 47" d="M722.214,344.772l-2.566,3.335a.577.577,0,1,0,.915.7l2.566-3.335a.577.577,0,0,0-.915-.7Z" transform="translate(-667.985 -302.01)" fill="#ffe900"/>
      <path id="Path_48" data-name="Path 48" d="M727.692,348.986l-2.566,3.335a.577.577,0,1,0,.915.7l2.565-3.334a.577.577,0,1,0-.915-.7Z" transform="translate(-672.281 -305.314)" fill="#ffe900"/>
      <path id="Path_49" data-name="Path 49" d="M733.17,353.2l-2.566,3.334a.577.577,0,1,0,.915.7l2.566-3.335a.577.577,0,1,0-.915-.7Z" transform="translate(-676.576 -308.619)" fill="#ffe900"/>
      <path id="Path_50" data-name="Path 50" d="M738.647,357.415l-2.565,3.335a.577.577,0,0,0,.915.7l2.566-3.335a.577.577,0,0,0-.915-.7Z" transform="translate(-680.871 -311.924)" fill="#ffe900"/>
      <path id="Path_51" data-name="Path 51" d="M744.125,361.629l-2.566,3.335a.577.577,0,1,0,.914.7l2.566-3.335a.577.577,0,1,0-.914-.7Z" transform="translate(-685.166 -315.228)" fill="#ffe900"/>
      <path id="Path_52" data-name="Path 52" d="M750.672,365.264c-.508-.118-1.362-.265-1.362-.265l-1.544,2.007-.03.039-1.544,2.007s.361.788.605,1.249a8.445,8.445,0,0,0,2.439,2.753c2.037,1.567,4.746,1.464,6.05-.231s.71-4.34-1.327-5.907A8.446,8.446,0,0,0,750.672,365.264Z" transform="translate(-688.893 -318.047)" fill="#ffe900"/>
      <path id="Path_53" data-name="Path 53" d="M514.225,179.394l-4.25-3.27a2.261,2.261,0,0,0-2.683.23,15.045,15.045,0,0,0-2.083,1.872l-.029-.022-.1.163c-.083.089-.131.142-.131.142l.029.022a15.056,15.056,0,0,0-1.276,2.494,2.26,2.26,0,0,0,.465,2.652l4.249,3.27h0l4.564,3.512a2.261,2.261,0,0,0,2.683-.23,15.065,15.065,0,0,0,2.084-1.873l.029.022s.039-.06.1-.163c.084-.09.131-.142.131-.142l-.029-.022a15.014,15.014,0,0,0,1.276-2.494,2.261,2.261,0,0,0-.465-2.652l-4.564-3.512Z" transform="translate(-498.585 -169.68)" fill="#ffe900"/>
      <path id="Path_54" data-name="Path 54" d="M500.62,213.449a.745.745,0,0,0,.136,1.044l8.5,6.539a.745.745,0,0,0,.908-1.18l-8.5-6.539A.745.745,0,0,0,500.62,213.449Z" transform="translate(-496.214 -198.985)" fill="#ffe900"/>
      <path id="Path_55" data-name="Path 55" d="M533.659,170.506a.744.744,0,0,0,.136,1.044l8.5,6.539a.745.745,0,0,0,.908-1.18l-8.5-6.539A.745.745,0,0,0,533.659,170.506Z" transform="translate(-522.12 -165.313)" fill="#ffe900"/>
      <path id="Path_56" data-name="Path 56" d="M545.768,150.649c-.181-.146-.367-.293-.562-.444l-.021.027a13.347,13.347,0,0,0-6.406-2.717c-1.155-.168-2.008,2.244-2.07,3.261a1.8,1.8,0,0,0,.75,1.549l3.842,2.956,1.136.874,3.842,2.956a1.8,1.8,0,0,0,1.689.328c.967-.321,3.08-1.764,2.621-2.837a13.345,13.345,0,0,0-4.268-5.5l.021-.027C546.146,150.928,545.956,150.787,545.768,150.649Z" transform="translate(-524.63 -147.507)" fill="#ffe900"/>
      <path id="Path_57" data-name="Path 57" d="M485.654,227.672c-.188-.137-.378-.279-.573-.43l.021-.027a13.346,13.346,0,0,1-4.268-5.5c-.459-1.073,1.654-2.517,2.622-2.837a1.8,1.8,0,0,1,1.689.328l3.841,2.956,1.136.874L493.963,226a1.8,1.8,0,0,1,.751,1.548c-.062,1.017-.916,3.429-2.071,3.261a13.349,13.349,0,0,1-6.406-2.717l-.021.027C486.021,227.965,485.835,227.818,485.654,227.672Z" transform="translate(-480.769 -203.404)" fill="#ffe900"/>
    </g>
  </g>
</svg>
